<?xml version="1.0" encoding="UTF-8" standalone="no"?>
<!-- Created with Inkscape (http://www.inkscape.org/) -->

<svg
   width="215mm"
   height="30mm"
   viewBox="0 0 215 30"
   version="1.1"
   id="svg2633"
   xmlns="http://www.w3.org/2000/svg"
   xmlns:svg="http://www.w3.org/2000/svg">
  <defs
     id="defs2630" />
  <g
     id="IEEESpectrum-LogoFinal-Black"
     transform="translate(0.954545,0.4545455)">
    <path
       d="m 67.573109,15.376942 c 0.164487,1.814559 1.33368,3.464159 4.405588,3.464159 2.796282,0 3.849889,-0.98976 3.849889,-2.510067 0,-1.448972 -0.853555,-2.175687 -2.498426,-2.407523 L 68.560032,13.397422 C 64.61234,12.951585 62.336193,10.691188 62.336193,6.9639847 62.336193,2.8355277 65.448112,0 71.747526,0 78.4915,0 81.189979,3.2323232 81.483389,7.133403 h -5.734823 c -0.231172,-1.7521421 -1.547069,-2.9068617 -4.00104,-2.9068617 -2.222799,0 -3.556479,0.8916753 -3.556479,2.3451062 0,1.1190526 0.657949,1.9438523 2.338385,2.1444793 l 4.178864,0.4458377 c 4.801247,0.4458377 6.975145,2.7374435 6.975145,6.6875655 0,4.324625 -2.698479,7.227029 -9.806992,7.227029 -7.206317,0 -9.704743,-3.76287 -9.935915,-7.686242 z"
       id="Path" />
    <path
       d="m 101.43968,14.266806 c 0,4.58767 -2.138329,8.747335 -7.557515,8.747335 -2.796282,0 -4.672325,-1.056635 -5.779279,-2.839986 v 8.916754 H 82.456975 V 6.0054336 h 5.659248 V 8.2346221 C 89.232068,6.4869383 91.108111,5.46597 93.895502,5.46597 c 5.405849,0.013375 7.544178,4.0704981 7.544178,8.800836 z m -5.659244,0 c 0,-3.067363 -0.986923,-4.3558342 -3.783205,-4.3558342 -2.894085,0 -3.881008,1.4177642 -3.881008,4.3558342 0,2.93807 0.986923,4.355834 3.881008,4.355834 2.796282,-0.01337 3.783205,-1.301846 3.783205,-4.355834 z"
       id="Shape" />
    <path
       d="m 114.36749,17.521421 h 5.49476 c -0.56015,2.835528 -2.79628,5.510554 -8.78451,5.510554 -6.71285,0 -9.08236,-4.288959 -9.08236,-8.809753 0,-4.7838382 2.76517,-8.7428768 9.08236,-8.7428768 6.71286,0 8.85119,4.2532915 8.85119,8.8409608 0.005,0.464261 -0.0289,0.928128 -0.10225,1.386556 h -12.33654 c 0.32898,2.639359 1.61376,3.531034 3.72097,3.531034 1.67599,0 2.69403,-0.726715 3.15638,-1.716475 z m -6.81066,-5.113758 h 7.00626 c -0.1956,-2.082062 -1.21365,-3.2011148 -3.41866,-3.2011148 -2.04053,0 -3.22306,0.8247998 -3.5876,3.2011148 z"
       id="path5" />
    <path
       d="m 129.8115,5.4793452 c 5.95266,0 8.85119,3.3616161 8.98011,7.4856148 h -5.54366 c -0.16449,-1.943852 -1.15141,-3.0673633 -3.35199,-3.0673633 -2.3695,0 -3.72096,1.0566353 -3.72096,4.3558343 0,3.299199 1.28478,4.355834 3.61872,4.355834 2.33393,0 3.3253,-1.288471 3.52091,-3.120864 h 5.56144 c -0.13336,3.92783 -2.86296,7.525796 -8.98011,7.525796 -6.81065,0.01778 -9.37576,-4.289014 -9.37576,-8.747391 0,-4.4583769 2.49842,-8.7874608 9.2913,-8.7874608 z"
       id="path7" />
    <path
       d="m 141.77016,16.001115 v -5.746848 h -2.89409 V 7.6238244 l 3.35199,-1.4890978 2.33838,-4.1239986 h 2.86297 v 4.0125391 h 4.47227 v 4.2309999 h -4.47227 v 7.762034 h 3.94769 v 4.485127 h -2.99633 c -5.03242,0 -6.61061,-2.242563 -6.61061,-6.500313 z"
       id="path9" />
    <path
       d="m 164.3049,5.7423894 v 5.5105536 h -2.00496 c -2.73405,0 -3.88546,1.337513 -3.88546,4.650087 v 6.598398 h -5.65924 V 6.0054336 h 5.50809 v 3.3571578 c 0.65795,-2.3451062 2.00941,-3.6291187 4.67233,-3.6291187 z"
       id="path11" />
    <path
       d="M 182.98976,6.0054336 V 22.501428 h -5.65925 V 19.50094 c -1.04916,2.14448 -2.92521,3.531035 -5.81929,3.531035 -4.31223,0 -6.25496,-2.675026 -6.25496,-6.995193 V 6.0054336 h 5.65925 v 9.0415884 c 0,2.229188 0.88912,3.397283 2.89853,3.397283 2.20057,0 3.51647,-1.520306 3.51647,-4.685754 V 6.0054336 Z"
       id="path13" />
    <path
       d="m 213.09091,12.483455 v 10.031348 h -5.65925 v -9.184256 c 0,-2.113271 -0.81799,-3.26799 -2.69403,-3.26799 -2.2228,0 -3.25863,1.453431 -3.25863,4.685754 v 7.753117 h -5.56144 v -9.170881 c 0,-2.113271 -0.82244,-3.26799 -2.69403,-3.26799 -2.2228,0 -3.25863,1.453431 -3.25863,4.685754 v 7.753117 h -5.65925 V 6.0054336 h 5.65925 v 2.8043191 c 1.01804,-2.046395 2.76072,-3.3304075 5.59257,-3.3304075 2.83184,0 4.60564,1.337513 5.42807,3.6603274 1.01804,-2.2291885 2.8274,-3.6603274 5.82374,-3.6603274 4.30778,0 6.28163,2.6705677 6.28163,7.0041098 z"
       id="path15" />
    <polygon
       id="polygon17"
       points="3.1430387,18.408638 0,18.408638 0,22.470219 11.94088,22.470219 11.94088,18.408638 8.8022865,18.408638 8.8022865,7.1021944 11.94088,7.1021944 11.94088,3.0450714 0,3.0450714 0,7.1021944 3.1430387,7.1021944 " />
    <polygon
       id="polygon19"
       points="26.037875,10.695646 18.853786,10.695646 18.853786,7.1021944 26.913658,7.1021944 26.913658,3.0450714 18.853786,3.0450714 13.194539,3.0450714 13.194539,22.461303 13.194539,22.470219 27.00257,22.470219 27.00257,18.408638 18.853786,18.408638 18.853786,14.467433 26.037875,14.467433 " />
    <polygon
       id="polygon21"
       points="40.837275,10.695646 33.648741,10.695646 33.648741,7.1021944 41.708612,7.1021944 41.708612,3.0450714 33.648741,3.0450714 27.993938,3.0450714 27.993938,22.461303 27.993938,22.470219 41.797524,22.470219 41.797524,18.408638 33.648741,18.408638 33.648741,14.467433 40.837275,14.467433 " />
    <polygon
       id="polygon23"
       points="55.632229,10.695646 48.448141,10.695646 48.448141,7.1021944 56.508012,7.1021944 56.508012,3.0450714 48.448141,3.0450714 42.788893,3.0450714 42.788893,22.461303 42.788893,22.470219 56.592478,22.470219 56.592478,18.408638 48.448141,18.408638 48.448141,14.467433 55.632229,14.467433 " />
  </g>
</svg>
