<?xml version="1.0" encoding="utf-8"?>
<!-- Generator: Adobe Illustrator 19.2.1, SVG Export Plug-In . SVG Version: 6.00 Build 0)  -->
<svg version="1.1" id="layer" xmlns="http://www.w3.org/2000/svg" xmlns:xlink="http://www.w3.org/1999/xlink" x="0px" y="0px"
	 viewBox="0 0 652 652" style="enable-background:new 0 0 652 652;" xml:space="preserve">
<style type="text/css">
	.st0{fill:#1F4364;}
	.st1{fill:#999999;}
</style>
<g>
	<path class="st0" d="M45,349.7c-13.3,0-21.7-5.1-25-8l6.4-9.5c1.9,1.4,8.1,6.5,18.6,6.5c9.4,0,15-5.1,15-11.1
		c0-8.3-9.2-11.2-19-15.8c-10.4-4.9-18.8-10.4-18.8-23.3c0-13.4,11.9-21.3,26-21.3c13.1,0,20.3,4.3,23.5,6.6l-6.2,9.6
		c-2.9-1.9-8.8-5.1-16.8-5.1c-7.6,0-12.8,3.7-12.8,10.1c0,6.9,6.7,9.7,15.3,13.4c11.1,4.9,22.8,10.3,22.8,25.4
		C74.1,340.6,62.7,349.7,45,349.7z"/>
	<path class="st0" d="M106,349.7c-18.8,0-29.8-13.9-29.8-31.8c0-20.5,13.3-31.8,30.3-31.8c10,0,15.8,3.4,18.7,5.4l-4.9,9.4
		c-3-2-6.9-4.3-13.5-4.3c-11.1,0-16.4,8.8-16.4,20.9c0,12,5.3,21.5,16.7,21.5c7.3,0,12.1-3.1,14-4.3l4.4,9.1
		C122.9,346,117,349.7,106,349.7z"/>
	<path class="st0" d="M136.1,282.6c-4.5,0-8-3.6-8-7.8c0-4.3,3.5-7.8,8-7.8c4.6,0,8.1,3.6,8.1,7.8
		C144.2,279.1,140.7,282.6,136.1,282.6z"/>
	<rect x="129.8" y="287.7" class="st0" width="13.1" height="60.6"/>
	<path class="st0" d="M178.1,339.3c8.5,0,13.7-3.1,16.4-4.8l4.7,9.1c-3.5,2.1-10.1,6-22,6c-20,0-30.6-13.5-30.6-32.2
		c0-18.5,12.3-31.4,28.9-31.4c17.9,0,27.2,12.9,25.3,33.8h-40.1C161.5,331,166.5,339.3,178.1,339.3z M187.9,310.4
		c-0.3-7.6-3.5-14.1-12.5-14.1c-8.2,0-12.8,5.5-14.2,14.1H187.9z"/>
	<path class="st0" d="M242.5,348.2v-40c0-6.8-2.4-10.6-9.4-10.6c-7.7,0-13.5,7.5-14.8,9.1v41.5h-13.5v-60.6h13.3v8.1
		c3-3.6,9.2-9.6,19.6-9.6c13.1,0,18.2,8.5,18.2,19.3v42.8L242.5,348.2L242.5,348.2z"/>
	<path class="st0" d="M289.3,349.7c-18.8,0-29.8-13.9-29.8-31.8c0-20.5,13.3-31.8,30.3-31.8c10,0,15.8,3.4,18.7,5.4l-4.9,9.4
		c-3-2-6.9-4.3-13.5-4.3c-11.1,0-16.4,8.8-16.4,20.9c0,12,5.3,21.5,16.7,21.5c7.3,0,12.1-3.1,14-4.3l4.4,9.1
		C306.2,346,300.3,349.7,289.3,349.7z"/>
	<path class="st0" d="M336.7,339.3c8.5,0,13.6-3.1,16.4-4.8l4.7,9.1c-3.5,2.1-10.1,6-22,6c-20,0-30.6-13.5-30.6-32.2
		c0-18.5,12.3-31.4,28.9-31.4c17.9,0,27.2,12.9,25.3,33.8h-40.1C320.1,331,325.1,339.3,336.7,339.3z M346.5,310.4
		c-0.3-7.6-3.5-14.1-12.5-14.1c-8.2,0-12.8,5.5-14.2,14.1H346.5z"/>
	<path class="st0" d="M421.3,348.2l-32.9-50.6c-3.3-5.5-6.8-11.5-6.8-11.5c0,0.2,0.5,5.2,0.5,9.9v52.2h-12.9v-81.1h14.6l31,47.7
		c3.6,6.3,7.3,12.9,7.3,12.9c0-0.5-0.5-5.7-0.5-11.9v-48.7h13v81.1L421.3,348.2L421.3,348.2z"/>
	<path class="st0" d="M469.9,339.2c8.5,0,13.7-3.1,16.4-4.8l4.7,9.1c-3.5,2.1-10.1,6-22,6c-20,0-30.6-13.5-30.6-32.2
		c0-18.5,12.3-31.4,28.9-31.4c17.9,0,27.2,12.9,25.3,33.8h-40.1C453.3,330.8,458.3,339.2,469.9,339.2z M479.7,310.3
		c-0.3-7.6-3.5-14.1-12.5-14.1c-8.2,0-12.8,5.5-14.2,14.1H479.7z"/>
	<polygon class="st0" points="560.5,348.1 548.4,348.1 534.7,304.7 534.5,304.7 520.7,348.1 508.6,348.1 490.9,287.5 505.3,287.5 
		516.3,329.3 516.5,329.3 528.7,287.5 541.3,287.5 553.6,329.5 553.8,329.5 564.9,287.5 578.3,287.5 	"/>
	<path class="st0" d="M596.9,349.7c-10,0-16.8-3.3-20.6-5.9l4.9-9.5c2.3,1.6,8.1,5,15,5c7,0,11.1-2.5,11.1-7
		c0-4.8-5.7-6.4-14.5-10.4c-9-4-15-8.5-15-18.1c0-10.5,8.2-17.8,21.2-17.8c10.4,0,16.6,3.8,19,5.3l-5.3,9.3c-2.3-1.5-7-4.1-13.3-4.1
		c-6.2,0-9.2,2.5-9.2,6.6c0,4.9,5.3,6.5,12.1,9.3c9.9,4,17.7,8.4,17.7,18.6C620,342.9,611.2,349.7,596.9,349.7z"/>
</g>
<g>
	<path class="st1" d="M24.3,376.6l2.3-16.1h0.3l6.6,13.2l6.5-13.2h0.3l2.3,16.1h-1.6l-1.6-11.5l-5.7,11.5h-0.4L27.5,365l-1.6,11.6
		L24.3,376.6L24.3,376.6z"/>
	<path class="st1" d="M52.5,360.5l7.6,16.1h-1.8l-2.6-5.3h-7l-2.5,5.3h-1.8l7.7-16.1H52.5z M52.3,364l-2.8,5.8H55L52.3,364z"/>
	<path class="st1" d="M78.2,363.2l-1.3,1.2c-0.9-0.9-1.9-1.5-3-2c-1.1-0.5-2.1-0.7-3.1-0.7c-1.3,0-2.5,0.3-3.6,0.9
		c-1.2,0.6-2,1.5-2.7,2.5c-0.6,1.1-0.9,2.2-0.9,3.4c0,1.2,0.3,2.4,1,3.4c0.7,1.1,1.6,1.9,2.7,2.6c1.2,0.6,2.4,0.9,3.8,0.9
		c1.7,0,3.1-0.5,4.2-1.4c1.2-0.9,1.8-2.1,2.1-3.6h-5.2v-1.6h7c0,2.5-0.8,4.5-2.2,5.9c-1.5,1.5-3.4,2.2-5.9,2.2c-3,0-5.4-1-7.1-3
		c-1.3-1.6-2-3.4-2-5.4c0-1.5,0.4-2.9,1.2-4.3c0.8-1.3,1.8-2.3,3.2-3.1c1.3-0.7,2.9-1.1,4.6-1.1c1.4,0,2.7,0.2,3.9,0.7
		C75.9,361.4,77,362.1,78.2,363.2z"/>
	<path class="st1" d="M88.9,360.5l7.6,16.1h-1.8l-2.6-5.3h-7l-2.5,5.3h-1.8l7.7-16.1H88.9z M88.7,364l-2.8,5.8h5.5L88.7,364z"/>
	<path class="st1" d="M98.3,362.1v-1.5h8.6l-6.8,14.5h6.4v1.6h-8.9l6.8-14.5L98.3,362.1L98.3,362.1z"/>
	<path class="st1" d="M109.6,360.5h1.6v16.1h-1.6V360.5z"/>
	<path class="st1" d="M114.9,376.6v-16.1h0.4l10.8,12.3v-12.3h1.6v16.1h-0.4l-10.7-12.2v12.2H114.9z"/>
	<path class="st1" d="M131.6,360.5h9.3v1.6h-7.7v5h7.6v1.6h-7.6v6.3h7.6v1.6h-9.2C131.6,376.6,131.6,360.5,131.6,360.5z"/>
	<path class="st1" d="M157.7,360.1c2.5,0,4.5,0.8,6.2,2.4c1.7,1.6,2.5,3.6,2.5,6c0,2.3-0.8,4.3-2.5,6c-1.7,1.6-3.7,2.5-6,2.5
		c-2.4,0-4.4-0.8-6.1-2.4c-1.7-1.6-2.5-3.6-2.5-5.9c0-1.5,0.4-3,1.1-4.3c0.8-1.3,1.8-2.3,3.1-3.1
		C154.8,360.5,156.2,360.1,157.7,360.1z M157.8,361.7c-1.2,0-2.3,0.3-3.4,0.9c-1.1,0.6-1.9,1.5-2.5,2.5c-0.6,1-0.9,2.2-0.9,3.5
		c0,1.9,0.7,3.5,2,4.8c1.3,1.3,2.9,2,4.8,2c1.3,0,2.4-0.3,3.5-0.9c1.1-0.6,1.9-1.4,2.5-2.5c0.6-1,0.9-2.2,0.9-3.5
		c0-1.3-0.3-2.4-0.9-3.5c-0.6-1-1.4-1.9-2.5-2.5C160.1,362,159,361.7,157.8,361.7z"/>
	<path class="st1" d="M169.6,360.5h8.1v1.6h-6.5v5h6.5v1.6h-6.5v7.9h-1.6V360.5z"/>
	<path class="st1" d="M185.2,362.1v-1.6h8.9v1.6h-3.6v14.5h-1.7v-14.5H185.2z"/>
	<path class="st1" d="M196.4,360.5h1.6v6.7h8.3v-6.7h1.6v16.1h-1.6v-7.8H198v7.8h-1.6V360.5z"/>
	<path class="st1" d="M211.8,360.5h9.3v1.6h-7.7v5h7.6v1.6h-7.6v6.3h7.6v1.6h-9.2L211.8,360.5L211.8,360.5z"/>
	<path class="st1" d="M228.5,373.6l1.4-0.8c1,1.8,2.1,2.6,3.4,2.6c0.5,0,1.1-0.1,1.5-0.4c0.5-0.3,0.8-0.6,1.1-1
		c0.2-0.4,0.4-0.9,0.4-1.3c0-0.5-0.2-1.1-0.6-1.6c-0.5-0.7-1.4-1.6-2.8-2.6c-1.4-1-2.2-1.7-2.5-2.2c-0.6-0.8-0.9-1.6-0.9-2.5
		c0-0.7,0.2-1.3,0.5-1.9c0.3-0.6,0.8-1,1.4-1.4c0.6-0.3,1.3-0.5,2-0.5c0.8,0,1.5,0.2,2.1,0.6c0.7,0.4,1.4,1.1,2.1,2.1l-1.3,1
		c-0.6-0.8-1.1-1.3-1.6-1.6c-0.4-0.3-0.9-0.4-1.4-0.4c-0.7,0-1.2,0.2-1.6,0.6c-0.4,0.4-0.6,0.9-0.6,1.5c0,0.3,0.1,0.7,0.2,1
		c0.1,0.3,0.4,0.7,0.8,1.1c0.2,0.2,0.9,0.7,2.1,1.6c1.4,1,2.4,1.9,2.9,2.7c0.5,0.8,0.8,1.6,0.8,2.4c0,1.2-0.4,2.2-1.3,3
		c-0.9,0.9-2,1.3-3.3,1.3c-1,0-1.9-0.3-2.7-0.8C229.9,375.7,229.2,374.8,228.5,373.6z"/>
	<path class="st1" d="M249.2,360.1c2.5,0,4.5,0.8,6.2,2.4c1.7,1.6,2.5,3.6,2.5,6c0,2.3-0.8,4.3-2.5,6c-1.7,1.6-3.7,2.5-6,2.5
		c-2.4,0-4.4-0.8-6.1-2.4c-1.7-1.6-2.5-3.6-2.5-5.9c0-1.5,0.4-3,1.1-4.3c0.8-1.3,1.8-2.3,3.1-3.1
		C246.2,360.5,247.7,360.1,249.2,360.1z M249.2,361.7c-1.2,0-2.3,0.3-3.4,0.9c-1.1,0.6-1.9,1.5-2.5,2.5c-0.6,1-0.9,2.2-0.9,3.5
		c0,1.9,0.7,3.5,2,4.8c1.3,1.3,2.9,2,4.8,2c1.3,0,2.4-0.3,3.5-0.9c1.1-0.6,1.9-1.4,2.5-2.5c0.6-1,0.9-2.2,0.9-3.5
		c0-1.3-0.3-2.4-0.9-3.5c-0.6-1-1.4-1.9-2.5-2.5C251.6,362,250.5,361.7,249.2,361.7z"/>
	<path class="st1" d="M276.2,363.5l-1.3,1c-0.7-0.9-1.6-1.6-2.5-2.1c-1-0.5-2.1-0.7-3.3-0.7c-1.3,0-2.5,0.3-3.6,0.9
		c-1.1,0.6-2,1.4-2.6,2.5c-0.6,1-0.9,2.2-0.9,3.5c0,2,0.7,3.6,2,4.9c1.4,1.3,3.1,2,5.1,2c2.3,0,4.2-0.9,5.7-2.6l1.3,1
		c-0.8,1-1.8,1.8-3,2.4c-1.2,0.6-2.6,0.8-4.1,0.8c-2.8,0-5.1-0.9-6.7-2.8c-1.4-1.6-2.1-3.5-2.1-5.7c0-2.4,0.8-4.3,2.5-5.9
		c1.7-1.6,3.8-2.4,6.3-2.4c1.5,0,2.9,0.3,4.1,0.9C274.4,361.6,275.4,362.4,276.2,363.5z"/>
	<path class="st1" d="M279.2,360.5h1.6v16.1h-1.6V360.5z"/>
	<path class="st1" d="M284.6,360.5h9.3v1.6h-7.7v5h7.6v1.6h-7.6v6.3h7.6v1.6h-9.2V360.5z"/>
	<path class="st1" d="M295,362.1v-1.6h8.9v1.6h-3.6v14.5h-1.7v-14.5H295z"/>
	<path class="st1" d="M305,360.5h1.9l4.1,6.6l4.1-6.6h1.9l-5.1,8.4v7.7h-1.6v-7.7L305,360.5z"/>
	<path class="st1" d="M325.9,360.5h8.1v1.6h-6.5v5h6.5v1.6h-6.5v7.9h-1.6V360.5z"/>
	<path class="st1" d="M344.6,360.1c2.5,0,4.5,0.8,6.2,2.4c1.7,1.6,2.5,3.6,2.5,6c0,2.3-0.8,4.3-2.5,6c-1.7,1.6-3.7,2.5-6,2.5
		c-2.4,0-4.4-0.8-6.1-2.4c-1.7-1.6-2.5-3.6-2.5-5.9c0-1.5,0.4-3,1.1-4.3c0.8-1.3,1.8-2.3,3.1-3.1C341.6,360.5,343,360.1,344.6,360.1
		z M344.6,361.7c-1.2,0-2.3,0.3-3.4,0.9c-1.1,0.6-1.9,1.5-2.5,2.5c-0.6,1-0.9,2.2-0.9,3.5c0,1.9,0.7,3.5,2,4.8c1.3,1.3,2.9,2,4.8,2
		c1.3,0,2.4-0.3,3.5-0.9c1.1-0.6,1.9-1.4,2.5-2.5c0.6-1,0.9-2.2,0.9-3.5c0-1.3-0.3-2.4-0.9-3.5s-1.4-1.9-2.5-2.5
		C347,362,345.9,361.7,344.6,361.7z"/>
	<path class="st1" d="M356.6,360.5h3.2c1.8,0,3,0.1,3.7,0.2c1,0.2,1.7,0.7,2.4,1.4c0.6,0.7,0.9,1.6,0.9,2.7c0,0.9-0.2,1.6-0.6,2.3
		c-0.4,0.7-1,1.2-1.8,1.5c-0.8,0.3-1.8,0.5-3.2,0.5l5.8,7.5h-2l-5.8-7.5h-0.9v7.5h-1.6L356.6,360.5L356.6,360.5z M358.2,362.1v5.5
		l2.8,0c1.1,0,1.9-0.1,2.4-0.3c0.5-0.2,0.9-0.5,1.2-1c0.3-0.4,0.4-0.9,0.4-1.5c0-0.5-0.1-1-0.4-1.5c-0.3-0.4-0.7-0.8-1.2-0.9
		c-0.5-0.2-1.3-0.3-2.4-0.3H358.2z"/>
	<path class="st1" d="M374.8,373.6l1.4-0.8c1,1.8,2.1,2.6,3.4,2.6c0.5,0,1.1-0.1,1.5-0.4c0.5-0.3,0.8-0.6,1.1-1
		c0.3-0.4,0.4-0.9,0.4-1.3c0-0.5-0.2-1.1-0.5-1.6c-0.5-0.7-1.4-1.6-2.8-2.6c-1.4-1-2.2-1.7-2.5-2.2c-0.6-0.8-0.9-1.6-0.9-2.5
		c0-0.7,0.2-1.3,0.5-1.9c0.3-0.6,0.8-1,1.4-1.4c0.6-0.3,1.3-0.5,2-0.5c0.8,0,1.5,0.2,2.1,0.6c0.7,0.4,1.4,1.1,2.1,2.1l-1.3,1
		c-0.6-0.8-1.1-1.3-1.6-1.6c-0.4-0.3-0.9-0.4-1.4-0.4c-0.7,0-1.2,0.2-1.6,0.6c-0.4,0.4-0.6,0.9-0.6,1.5c0,0.3,0.1,0.7,0.2,1
		c0.1,0.3,0.4,0.7,0.8,1.1c0.2,0.2,0.9,0.7,2.1,1.6c1.4,1,2.4,1.9,2.9,2.7c0.5,0.8,0.8,1.6,0.8,2.4c0,1.2-0.4,2.2-1.3,3
		c-0.9,0.9-2,1.3-3.3,1.3c-1,0-1.9-0.3-2.7-0.8C376.2,375.7,375.4,374.8,374.8,373.6z"/>
	<path class="st1" d="M402.8,363.5l-1.3,1c-0.7-0.9-1.6-1.6-2.5-2.1c-1-0.5-2.1-0.7-3.3-0.7c-1.3,0-2.5,0.3-3.6,0.9
		c-1.1,0.6-2,1.4-2.6,2.5c-0.6,1-0.9,2.2-0.9,3.5c0,2,0.7,3.6,2,4.9c1.4,1.3,3.1,2,5.1,2c2.3,0,4.2-0.9,5.7-2.6l1.3,1
		c-0.8,1-1.8,1.8-3,2.4c-1.2,0.6-2.6,0.8-4,0.8c-2.8,0-5.1-0.9-6.7-2.8c-1.4-1.6-2.1-3.5-2.1-5.7c0-2.4,0.8-4.3,2.5-5.9
		c1.7-1.6,3.7-2.4,6.3-2.4c1.5,0,2.9,0.3,4.1,0.9C401,361.6,402,362.4,402.8,363.5z"/>
	<path class="st1" d="M405.8,360.5h1.6v16.1h-1.6V360.5z"/>
	<path class="st1" d="M411.1,360.5h9.3v1.6h-7.7v5h7.6v1.6h-7.6v6.3h7.6v1.6h-9.2V360.5z"/>
	<path class="st1" d="M423.3,376.6v-16.1h0.4l10.8,12.3v-12.3h1.6v16.1h-0.4l-10.7-12.2v12.2H423.3z"/>
	<path class="st1" d="M455.1,363.5l-1.3,1c-0.7-0.9-1.6-1.6-2.5-2.1c-1-0.5-2.1-0.7-3.3-0.7c-1.3,0-2.5,0.3-3.6,0.9
		c-1.1,0.6-2,1.4-2.6,2.5c-0.6,1-0.9,2.2-0.9,3.5c0,2,0.7,3.6,2,4.9c1.4,1.3,3.1,2,5.1,2c2.3,0,4.2-0.9,5.7-2.6l1.3,1
		c-0.8,1-1.8,1.8-3,2.4c-1.2,0.6-2.6,0.8-4.1,0.8c-2.8,0-5.1-0.9-6.7-2.8c-1.4-1.6-2.1-3.5-2.1-5.7c0-2.4,0.8-4.3,2.5-5.9
		c1.7-1.6,3.8-2.4,6.3-2.4c1.5,0,2.9,0.3,4.1,0.9C453.3,361.6,454.3,362.4,455.1,363.5z"/>
	<path class="st1" d="M458.3,360.5h9.3v1.6h-7.7v5h7.6v1.6h-7.6v6.3h7.6v1.6h-9.2V360.5z"/>
	<path class="st1" d="M489,370.7l1.1,1.2c-0.7,0.6-1.4,1.2-2,1.6c0.4,0.4,1,1,1.7,1.7c0.6,0.5,1,1.1,1.4,1.5H489l-2.2-2.2
		c-1.3,1.1-2.5,1.8-3.3,2.1c-0.8,0.3-1.7,0.5-2.7,0.5c-1.3,0-2.3-0.4-3-1.1c-0.8-0.7-1.1-1.6-1.1-2.7c0-0.8,0.3-1.6,0.8-2.4
		c0.5-0.8,1.6-1.8,3.1-3.1c-0.9-1.1-1.5-1.8-1.7-2.3c-0.3-0.5-0.4-1-0.4-1.4c0-0.8,0.3-1.5,0.9-2c0.7-0.6,1.6-0.9,2.7-0.9
		c0.7,0,1.3,0.1,1.9,0.4c0.6,0.3,1,0.6,1.3,1.1c0.3,0.5,0.4,0.9,0.4,1.5c0,0.5-0.2,1.1-0.6,1.7c-0.4,0.6-1.1,1.4-2.3,2.3l2.5,2.5
		l1.6,1.6C487.8,371.6,488.5,371.1,489,370.7z M481.6,369c-1.4,1-2.3,1.8-2.7,2.5c-0.4,0.6-0.6,1.2-0.6,1.7c0,0.6,0.3,1.2,0.8,1.6
		c0.5,0.5,1.2,0.7,1.9,0.7c0.6,0,1.1-0.1,1.7-0.3c0.9-0.4,1.9-1,3-1.9l-2.6-2.6C482.7,370.2,482.2,369.6,481.6,369z M481.8,366.9
		c0.8-0.6,1.4-1.2,1.8-1.8c0.3-0.4,0.4-0.8,0.4-1.1c0-0.4-0.2-0.7-0.5-1c-0.4-0.3-0.9-0.4-1.5-0.4c-0.6,0-1,0.1-1.4,0.4
		c-0.4,0.3-0.5,0.6-0.5,1c0,0.3,0.1,0.6,0.2,0.8C480.7,365.5,481.2,366.2,481.8,366.9z"/>
	<path class="st1" d="M498.4,362.1v-1.6h8.9v1.6h-3.6v14.5H502v-14.5H498.4z"/>
	<path class="st1" d="M509.6,360.5h1.6v6.7h8.3v-6.7h1.6v16.1h-1.6v-7.8h-8.3v7.8h-1.6L509.6,360.5L509.6,360.5z"/>
	<path class="st1" d="M525.1,360.5h9.3v1.6h-7.7v5h7.6v1.6h-7.6v6.3h7.6v1.6h-9.2V360.5z"/>
	<path class="st1" d="M543.4,360.5h3.2c1.8,0,3.1,0.1,3.7,0.2c0.9,0.2,1.7,0.7,2.3,1.4c0.6,0.7,0.9,1.6,0.9,2.6c0,1.1-0.3,2-0.9,2.6
		c-0.6,0.7-1.4,1.2-2.4,1.4c-0.7,0.2-2.1,0.3-4.1,0.3H545v7.5h-1.6L543.4,360.5L543.4,360.5z M545,362.1v5.4l2.7,0
		c1.1,0,1.9-0.1,2.4-0.3c0.5-0.2,0.9-0.5,1.2-1c0.3-0.4,0.4-0.9,0.4-1.5c0-0.5-0.1-1-0.4-1.5c-0.3-0.4-0.7-0.8-1.2-1
		c-0.5-0.2-1.3-0.3-2.4-0.3C547.9,362.1,545,362.1,545,362.1z"/>
	<path class="st1" d="M556.8,360.5h1.6v9.7c0,1.1,0,1.9,0.1,2.1c0.1,0.6,0.3,1.2,0.6,1.6c0.3,0.4,0.7,0.8,1.4,1.1
		c0.6,0.3,1.2,0.4,1.8,0.4c0.5,0,1.1-0.1,1.5-0.3c0.5-0.2,0.9-0.5,1.2-0.9c0.3-0.4,0.6-0.9,0.7-1.4c0.1-0.4,0.2-1.2,0.2-2.5v-9.7
		h1.6v9.7c0,1.4-0.1,2.6-0.4,3.5c-0.3,0.9-0.9,1.7-1.7,2.3c-0.8,0.7-1.9,1-3.1,1c-1.3,0-2.4-0.3-3.4-0.9c-0.9-0.6-1.6-1.4-1.9-2.5
		c-0.2-0.6-0.3-1.8-0.3-3.4L556.8,360.5L556.8,360.5z"/>
	<path class="st1" d="M571.6,360.5h3.2c1.3,0,2.3,0.2,3,0.5c0.7,0.3,1.2,0.8,1.6,1.4c0.4,0.6,0.6,1.3,0.6,2.1c0,0.7-0.2,1.4-0.5,2
		c-0.3,0.6-0.9,1.1-1.5,1.4c0.8,0.3,1.5,0.6,1.9,1c0.5,0.4,0.8,0.8,1.1,1.4c0.3,0.5,0.4,1.1,0.4,1.8c0,1.3-0.5,2.4-1.4,3.3
		c-1,0.9-2.2,1.3-3.8,1.3h-4.5L571.6,360.5L571.6,360.5z M573.2,362.1v5.1h0.9c1.1,0,2-0.1,2.5-0.3c0.5-0.2,0.9-0.5,1.3-1
		c0.3-0.5,0.5-0.9,0.5-1.5c0-0.7-0.3-1.3-0.8-1.7c-0.5-0.4-1.3-0.6-2.5-0.6L573.2,362.1L573.2,362.1z M573.2,368.9v6.2h2
		c1.2,0,2.1-0.1,2.6-0.3c0.6-0.2,1-0.6,1.3-1.1c0.3-0.5,0.5-1,0.5-1.6c0-0.7-0.2-1.3-0.7-1.9c-0.5-0.5-1.1-0.9-1.9-1.1
		c-0.5-0.1-1.5-0.2-2.9-0.2C574.1,368.9,573.2,368.9,573.2,368.9z"/>
	<path class="st1" d="M584.6,360.5h1.6V375h6.2v1.6h-7.9V360.5z"/>
	<path class="st1" d="M594.8,360.5h1.6v16.1h-1.6V360.5z"/>
	<path class="st1" d="M615.2,363.5l-1.3,1c-0.7-0.9-1.6-1.6-2.5-2.1c-1-0.5-2.1-0.7-3.3-0.7c-1.3,0-2.5,0.3-3.6,0.9
		c-1.1,0.6-2,1.4-2.6,2.5c-0.6,1-0.9,2.2-0.9,3.5c0,2,0.7,3.6,2,4.9c1.4,1.3,3.1,2,5.1,2c2.3,0,4.2-0.9,5.7-2.6l1.3,1
		c-0.8,1-1.8,1.8-3,2.4c-1.2,0.6-2.6,0.8-4.1,0.8c-2.8,0-5.1-0.9-6.7-2.8c-1.4-1.6-2.1-3.5-2.1-5.7c0-2.4,0.8-4.3,2.5-5.9
		c1.7-1.6,3.8-2.4,6.3-2.4c1.5,0,2.9,0.3,4.1,0.9C613.4,361.6,614.4,362.4,615.2,363.5z"/>
</g>
</svg>
